# xmcd
#
# Track frame offsets:
#	150
#	27602
#	44987
#	66755
#	89940
#	107512
#	125615
#	149952
#	166845
#	187622
#	216262
#	236217
#	258407
#	278075
#
# Disc length: 4409 seconds
#
# Revision: 0
# Processed by: cddbd v1.4PL0 Copyright (c) Steve Scherf et al.
# Submitted via: EasyCDDAExtractor 5.0.5.1
#
DISCID=e111370e
DTITLE=Mary Chapin Carpenter - Time*Sex*Love*
DYEAR=2001
DGENRE=Country
TTITLE0=Whenever You're Ready
TTITLE1=Simple Life
TTITLE2=Swept Away
TTITLE3=Slave To The Beauty
TTITLE4=Maybe World
TTITLE5=What Was It Like
TTITLE6=King Of Love
TTITLE7=This Is Me Leaving You
TTITLE8=Someone Else's Prayer
TTITLE9=The Dreaming Road
TTITLE10=Alone But Not Lonely
TTITLE11=The Long Way Home
TTITLE12=In The Name Of Love
TTITLE13=Late For Your Life
EXTD=YEAR: 1996 ID3G: 2
EXTT0=
EXTT1=
EXTT2=
EXTT3=
EXTT4=
EXTT5=
EXTT6=
EXTT7=
EXTT8=
EXTT9=
EXTT10=
EXTT11=
EXTT12=
EXTT13=
PLAYORDER=
